<?xml version="1.0" standalone="no"?><!-- Generator: Adobe Fireworks CS6, Export SVG Extension by Aaron Beall (http://fireworks.abeall.com) . Version: 0.6.1  --><!DOCTYPE svg PUBLIC "-//W3C//DTD SVG 1.1//EN" "http://www.w3.org/Graphics/SVG/1.1/DTD/svg11.dtd"><svg id="AppDemo-design-source.fw-Page%201" viewBox="0 0 100 1900" style="background-color:#ffffff00" version="1.1"	xmlns="http://www.w3.org/2000/svg" xmlns:xlink="http://www.w3.org/1999/xlink" xml:space="preserve"	x="0px" y="0px" width="100px" height="1900px">	<defs>		<filter id="filter1" x="-100%" y="-100%" width="300%" height="300%">			<!-- Drop Shadow -->			<feOffset result="out" in="SourceGraphic" dx="0" dy="2"/>			<feColorMatrix result="out" in="out" type="matrix" values="0 0 0 0.4157 0  0 0 0 0.4627 0  0 0 0 0.5176 0  0 0 0 0.6471 0"/>			<feGaussianBlur result="out" in="out" stdDeviation="0"/>			<feBlend in="SourceGraphic" in2="out" mode="normal" result="Drop_Shadow1"/>		</filter>		<filter id="filter2" x="-100%" y="-100%" width="300%" height="300%">			<!-- Drop Shadow -->			<feOffset result="out" in="SourceGraphic" dx="0" dy="2"/>			<feColorMatrix result="out" in="out" type="matrix" values="0 0 0 0.4157 0  0 0 0 0.4627 0  0 0 0 0.5176 0  0 0 0 0.6471 0"/>			<feGaussianBlur result="out" in="out" stdDeviation="0"/>			<feBlend in="SourceGraphic" in2="out" mode="normal" result="Drop_Shadow2"/>		</filter>		<filter id="filter3" x="-100%" y="-100%" width="300%" height="300%">			<!-- Drop Shadow -->			<feOffset result="out" in="SourceGraphic" dx="0" dy="2"/>			<feColorMatrix result="out" in="out" type="matrix" values="0 0 0 0.4157 0  0 0 0 0.4627 0  0 0 0 0.5176 0  0 0 0 0.6471 0"/>			<feGaussianBlur result="out" in="out" stdDeviation="0"/>			<feBlend in="SourceGraphic" in2="out" mode="normal" result="Drop_Shadow3"/>		</filter>	</defs>	<g>		<path d="M 69 1042 L 32 1042 C 31.6572 1042 31.3232 1041.9653 31 1042.0313 L 31 1042.0313 L 31 1035 L 27 1035 L 23 1035 L 23 1039 L 27 1039 L 27 1047 L 27 1053 L 27 1063 C 27 1065.7568 29.2432 1068 32 1068 L 62.6875 1068 C 65.6895 1068 68.2324 1066.458 69.4902 1063.876 L 74 1047.2646 L 74 1047 C 74 1044.2432 71.7568 1042 69 1042 ZM 65.8164 1062.2764 C 65.0449 1063.6963 63.6982 1064 62.6875 1064 L 32 1064 C 31.4482 1064 31 1063.5513 31 1063 L 31 1053 L 31 1047 C 31 1046.4487 31.4482 1046 32 1046 L 69 1046 C 69.4854 1046 69.8906 1046.3472 69.9814 1046.8057 L 65.8164 1062.2764 Z" fill="#313942"/>		<path d="M 36.8398 1073.9536 C 37.8545 1073.9536 38.6797 1074.7788 38.6797 1075.793 C 38.6797 1076.8076 37.8545 1077.6328 36.8398 1077.6328 C 35.8252 1077.6328 35 1076.8076 35 1075.793 C 35 1074.7788 35.8252 1073.9536 36.8398 1073.9536 L 36.8398 1073.9536 ZM 36.8398 1069.9536 C 33.6143 1069.9536 31 1072.5679 31 1075.793 C 31 1079.0186 33.6143 1081.6328 36.8398 1081.6328 C 40.0645 1081.6328 42.6797 1079.0186 42.6797 1075.793 C 42.6797 1072.5679 40.0645 1069.9536 36.8398 1069.9536 L 36.8398 1069.9536 Z" fill="#313942"/>		<path d="M 59.8398 1073.9536 C 60.8545 1073.9536 61.6797 1074.7788 61.6797 1075.793 C 61.6797 1076.8076 60.8545 1077.6328 59.8398 1077.6328 C 58.8252 1077.6328 58 1076.8076 58 1075.793 C 58 1074.7788 58.8252 1073.9536 59.8398 1073.9536 L 59.8398 1073.9536 ZM 59.8398 1069.9536 C 56.6143 1069.9536 54 1072.5679 54 1075.793 C 54 1079.0186 56.6143 1081.6328 59.8398 1081.6328 C 63.0645 1081.6328 65.6797 1079.0186 65.6797 1075.793 C 65.6797 1072.5679 63.0645 1069.9536 59.8398 1069.9536 L 59.8398 1069.9536 Z" fill="#313942"/>	</g>	<g>		<path d="M 69 1248 L 32 1248 C 31.6572 1248 31.3232 1247.9653 31 1248.0313 L 31 1248.0313 L 31 1241 L 27 1241 L 23 1241 L 23 1245 L 27 1245 L 27 1253 L 27 1259 L 27 1269 C 27 1271.7568 29.2432 1274 32 1274 L 62.6875 1274 C 65.6895 1274 68.2324 1272.458 69.4902 1269.876 L 74 1253.2646 L 74 1253 C 74 1250.2432 71.7568 1248 69 1248 ZM 65.8164 1268.2764 C 65.0449 1269.6963 63.6982 1270 62.6875 1270 L 32 1270 C 31.4482 1270 31 1269.5513 31 1269 L 31 1259 L 31 1253 C 31 1252.4487 31.4482 1252 32 1252 L 69 1252 C 69.4854 1252 69.8906 1252.3472 69.9814 1252.8057 L 65.8164 1268.2764 Z" fill="#ffffff"/>		<path d="M 36.8398 1279.9536 C 37.8545 1279.9536 38.6797 1280.7788 38.6797 1281.793 C 38.6797 1282.8076 37.8545 1283.6328 36.8398 1283.6328 C 35.8252 1283.6328 35 1282.8076 35 1281.793 C 35 1280.7788 35.8252 1279.9536 36.8398 1279.9536 L 36.8398 1279.9536 ZM 36.8398 1275.9536 C 33.6143 1275.9536 31 1278.5679 31 1281.793 C 31 1285.0186 33.6143 1287.6328 36.8398 1287.6328 C 40.0645 1287.6328 42.6797 1285.0186 42.6797 1281.793 C 42.6797 1278.5679 40.0645 1275.9536 36.8398 1275.9536 L 36.8398 1275.9536 Z" fill="#ffffff"/>		<path d="M 59.8398 1279.9536 C 60.8545 1279.9536 61.6797 1280.7788 61.6797 1281.793 C 61.6797 1282.8076 60.8545 1283.6328 59.8398 1283.6328 C 58.8252 1283.6328 58 1282.8076 58 1281.793 C 58 1280.7788 58.8252 1279.9536 59.8398 1279.9536 L 59.8398 1279.9536 ZM 59.8398 1275.9536 C 56.6143 1275.9536 54 1278.5679 54 1281.793 C 54 1285.0186 56.6143 1287.6328 59.8398 1287.6328 C 63.0645 1287.6328 65.6797 1285.0186 65.6797 1281.793 C 65.6797 1278.5679 63.0645 1275.9536 59.8398 1275.9536 L 59.8398 1275.9536 Z" fill="#ffffff"/>	</g>	<g>		<path d="M 43 1663 L 67 1663 L 67 1688 L 43 1688 L 43 1692.5 L 27 1675.5 L 43 1658.5 L 43 1663 Z" fill="#ffffff"/>	</g>	<g>		<rect x="25" y="30" width="40" height="7" fill="#ffffff" rx="3" ry="3"/>		<rect x="25" y="43" width="40" height="7" fill="#ffffff" rx="3" ry="3"/>		<rect x="25" y="56" width="40" height="7" fill="#ffffff" rx="3" ry="3"/>	</g>	<g>		<path id="t-shirt" filter="url(#filter1)" d="M 73.8038 637.1334 L 65.8351 630.7048 C 65.2693 630.248 64.5674 630 63.8437 630 L 35.1563 630 C 34.4326 630 33.7307 630.248 33.1649 630.7048 L 25.1962 637.1334 C 24.1534 637.9745 23.7418 639.3823 24.1635 640.6599 L 27.351 650.3027 C 27.6654 651.2523 28.4008 652.001 29.3409 652.3258 C 29.6778 652.4421 30.0583 652.5 30.4063 652.5 C 30.9611 652.5 31.5113 652.3542 32 652.0699 L 32 671.7857 C 32 673.5608 33.4272 675 35.1875 675 L 63.8125 675 C 65.5728 675 67 673.5608 67 671.7857 L 67 652.0699 C 67.4887 652.3542 68.039 652.5 68.5938 652.5 C 68.9417 652.5 69.3222 652.4421 69.6591 652.3258 C 70.5993 652.001 71.3346 651.2523 71.6491 650.3027 L 74.8365 640.6599 C 75.2582 639.3823 74.8466 637.9745 73.8038 637.1334 ZM 55.4836 633 C 54.6033 634.8661 52.2664 636 49.5 636 C 46.7336 636 44.3967 634.8661 43.5165 633 L 55.4836 633 ZM 68.7812 649.2857 L 64 646.0714 L 64 672 L 35 672 L 35 646.2857 L 30.2188 649.2857 L 27.1876 639.4286 L 35.1563 633 L 41.8131 633 C 42.7017 635.767 45.7912 637.6071 49.5 637.6071 C 53.2088 637.6071 56.2983 635.767 57.1869 633 L 63.8437 633 L 71.8124 639.4286 L 68.7812 649.2857 Z" fill="#313942"/>	</g>	<g>		<path id="banknote" filter="url(#filter2)" d="M 73.8607 849.6716 C 72.8458 852.9614 71.1125 855.7995 68.5673 858.3447 C 65.572 861.3385 61.9175 863.4625 58.3819 865.5165 C 55.0463 867.4513 51.8969 869.2792 49.4798 871.6962 C 47.6687 873.506 46.4449 875.5018 45.7354 877.7967 C 45.5828 878.2912 45.3142 878.7305 44.9602 879.0848 C 44.5635 879.4814 44.0629 879.7682 43.5015 879.9086 C 42.4379 880.171 41.3149 879.8598 40.5397 879.0848 L 24.9146 863.4596 C 24.095 862.6386 23.7976 861.4362 24.1394 860.3253 C 25.1541 857.0355 26.8876 854.2004 29.4327 851.6522 C 32.4281 848.6584 36.0825 846.5343 39.6196 844.4835 C 42.9537 842.5489 46.103 840.7177 48.5217 838.3007 C 50.3314 836.4909 51.5551 834.4952 52.2647 832.2001 C 52.4172 831.7089 52.6858 831.2693 53.0398 830.9153 C 53.4366 830.5186 53.9371 830.2287 54.4986 830.0914 C 55.5621 829.8289 56.6852 830.1402 57.4604 830.9153 L 73.0855 846.5404 C 73.9049 847.3584 74.2024 848.5638 73.8607 849.6716 ZM 55.2492 833.1248 C 50.8105 847.5018 31.5643 846.873 27.124 861.25 C 32.2998 866.4227 37.5749 871.6993 42.7507 876.8751 C 47.1895 862.4982 66.4356 863.1238 70.8759 848.7499 C 65.7001 843.5741 60.4251 838.2976 55.2492 833.1248 ZM 57.1703 839.0422 L 56.1022 840.5071 C 55.4355 841.4196 54.668 842.3107 53.8196 843.1591 C 52.9375 844.041 51.9869 844.8344 51.0089 845.5852 L 51.0042 845.5823 C 50.693 845.8691 50.2108 845.8629 49.9101 845.5608 C 49.602 845.2526 49.602 844.7521 49.9101 844.4438 C 49.9651 844.3859 50.0292 844.3462 50.0948 844.3096 C 51.0119 843.6077 51.8984 842.8723 52.7149 842.0542 C 53.5051 841.2639 54.2208 840.4338 54.8388 839.5854 L 55.878 838.1633 C 55.9146 838.0962 55.9572 838.0291 56.0138 837.9711 C 56.3219 837.6628 56.821 837.6628 57.1277 837.9711 C 57.4221 838.264 57.4328 838.7279 57.1674 839.0392 L 57.1703 839.0422 ZM 49.5836 850.0927 C 49.37 850.2728 49.1259 850.3339 48.8451 850.2789 C 48.5675 850.224 48.2653 850.1537 47.9358 850.0714 C 47.6121 849.989 47.2704 849.9523 46.9164 849.9676 C 46.5624 849.9798 46.1962 850.1537 45.8177 850.4955 C 46.657 851.3806 47.4962 852.3327 48.3354 853.2972 C 48.8665 853.0407 49.3945 852.8179 49.9194 852.6136 C 50.4442 852.412 50.9692 852.2961 51.4819 852.2564 C 52.0006 852.2198 52.5133 852.2778 53.0261 852.4212 C 53.5419 852.5646 54.0545 852.8547 54.5641 853.2818 C 55.0097 853.6511 55.321 854.0356 55.4951 854.4842 C 55.6719 854.9267 55.736 855.415 55.6811 855.9551 C 55.6261 856.4922 55.4614 857.0721 55.1836 857.6733 C 54.9059 858.2715 54.5306 858.8757 54.0636 859.4495 C 54.3383 859.6936 54.613 859.9255 54.8877 860.1453 C 55.0005 860.2368 55.0677 860.3619 55.083 860.5267 C 55.1013 860.6885 55.0524 860.8441 54.9364 860.9845 C 54.8236 861.1219 54.6802 861.1981 54.5153 861.2042 C 54.3444 861.2164 54.2041 861.1677 54.0881 861.0669 C 53.815 860.8228 53.5403 860.5695 53.2672 860.304 C 52.7025 860.8716 52.1289 861.2531 51.5491 861.4636 C 50.9722 861.6772 50.4259 861.7566 49.9072 861.72 C 49.3882 861.6864 48.9184 861.5613 48.5003 861.3629 C 48.0822 861.1646 47.7373 860.9143 47.4718 860.6154 C 47.2093 860.3162 47.0751 860.0201 47.0751 859.7302 C 47.0751 859.4373 47.2032 859.1779 47.4597 858.9553 C 47.7098 858.7415 47.9358 858.6377 48.1493 858.6407 C 48.3629 858.6438 48.5705 858.6987 48.7718 858.7994 C 48.9764 858.9001 49.1808 859.0222 49.3882 859.1656 C 49.5959 859.3061 49.8217 859.4159 50.0658 859.4922 C 50.31 859.5655 50.5786 859.5716 50.8806 859.5074 C 51.1828 859.4464 51.5245 859.2572 51.9151 858.9276 C 50.992 857.945 50.0673 856.8859 49.1442 855.8209 C 47.9845 856.4434 46.9042 856.7425 45.9032 856.8035 C 44.8991 856.8615 44.0325 856.6021 43.297 855.9919 C 42.8452 855.6164 42.5371 855.2197 42.3693 854.7527 C 42.2013 854.2889 42.1433 853.7884 42.2044 853.2421 C 42.2624 852.6989 42.418 852.1404 42.6806 851.5759 C 42.9399 851.0143 43.2694 850.4803 43.6693 849.9981 C 43.5671 849.9096 43.4663 849.8242 43.3641 849.7387 C 43.2482 849.6411 43.181 849.5129 43.1657 849.345 C 43.1445 849.1833 43.1963 849.0307 43.3091 848.8995 C 43.4251 848.7652 43.5656 848.692 43.7365 848.692 C 43.9043 848.6889 44.0446 848.7438 44.1576 848.8477 C 44.2597 848.9422 44.3606 849.0368 44.4628 849.1345 C 44.7282 848.872 45.0853 848.6035 45.5309 848.341 C 45.9765 848.0786 46.4463 847.8925 46.9407 847.7795 C 47.4414 847.6696 47.9234 847.6635 48.3934 847.7459 C 48.8695 847.8314 49.2662 848.0602 49.5959 848.4387 C 49.8522 848.7316 49.9681 849.0307 49.9529 849.339 C 49.9347 849.6441 49.8095 849.8974 49.5836 850.0927 ZM 52.7086 858.1615 C 52.8978 857.9601 53.0597 857.7282 53.2 857.4688 C 53.3434 857.2064 53.435 856.947 53.4808 856.6876 C 53.5234 856.4282 53.5205 856.175 53.4594 855.9247 C 53.4045 855.6774 53.2641 855.4485 53.0444 855.2288 C 52.8216 855.0121 52.5805 854.8748 52.3272 854.8107 C 52.0708 854.7497 51.8145 854.7375 51.5551 854.7772 C 51.3019 854.82 51.0484 854.8901 50.7952 854.9968 C 50.5419 855.1037 50.3069 855.2075 50.0842 855.3083 C 50.9584 856.3061 51.8344 857.2766 52.7086 858.1615 ZM 45.0182 851.2708 C 44.7984 851.5087 44.6276 851.7559 44.5116 852.0031 C 44.3895 852.2503 44.3193 852.4946 44.2979 852.7294 C 44.2735 852.9675 44.2949 853.1841 44.359 853.3825 C 44.4201 853.5809 44.5207 853.7487 44.6641 853.886 C 45.0013 854.2126 45.3874 854.3591 45.8299 854.3408 C 46.2724 854.3224 46.7943 854.1454 47.3925 853.8159 C 46.6006 852.9217 45.8101 852.058 45.0182 851.2708 ZM 46.9926 864.6558 L 46.9957 864.6558 C 47.3025 864.4086 47.7556 864.4208 48.0409 864.7076 C 48.3476 865.0128 48.3476 865.5104 48.0409 865.8156 C 48.0165 865.8398 47.989 865.8582 47.9617 865.8795 L 47.9647 865.8826 C 46.9759 866.6333 46.1626 867.3108 45.2866 868.1868 C 44.4948 868.9771 43.7791 869.8102 43.1596 870.6556 L 42.1616 872.0228 C 42.1296 872.0777 42.093 872.1296 42.0457 872.1784 C 41.739 872.4838 41.2416 872.4838 40.9364 872.1784 C 40.6708 871.9129 40.6374 871.504 40.8327 871.1989 L 40.8296 871.1957 L 41.8977 869.737 C 42.5646 868.8247 43.3321 867.9303 44.1804 867.0819 C 45.0624 866.1969 46.016 865.4066 46.9926 864.6558 Z" fill="#313942"/>	</g>	<g>		<path id="camera" filter="url(#filter3)" d="M 70.125 473 L 27.875 473 C 25.1867 473 23 470.8069 23 468.1109 L 23 443.6672 C 23 441.2658 24.7139 439.2381 27.0768 438.845 L 34.1179 437.6673 L 36.3476 432.0732 C 37.0949 430.2048 38.8723 429 40.875 429 L 57.125 429 C 59.1276 429 60.905 430.2048 61.6509 432.0717 L 63.882 437.6673 L 70.9264 438.845 C 73.2861 439.2381 75 441.2658 75 443.6672 L 75 468.1109 C 75 470.8069 72.8132 473 70.125 473 ZM 72 443.6672 C 72 442.8699 71.4256 442.1902 70.6417 442.0599 L 61.5445 440.5813 L 58.6341 433.0249 C 58.3866 432.4059 57.7899 432 57.125 432 L 40.875 432 C 40.21 432 39.6133 432.4059 39.3658 433.0249 L 36.4554 440.5813 L 27.3583 442.0599 C 26.5744 442.1902 26 442.8699 26 443.6672 L 26 468.3703 C 26 469.271 26.7268 470 27.625 470 L 70.375 470 C 71.2731 470 72 469.271 72 468.3703 L 72 443.6672 ZM 49 466.4845 C 41.8192 466.4845 36 460.6484 36 453.447 C 36 446.2454 41.8192 440.4095 49 440.4095 C 56.1807 440.4095 62 446.2454 62 453.447 C 62 460.6484 56.1807 466.4845 49 466.4845 ZM 55.3444 446.0243 C 51.2566 442.5102 45.101 442.9828 41.5986 447.0842 C 38.0947 451.1839 38.566 457.3572 42.6555 460.8712 C 46.7433 464.3837 52.8974 463.9111 56.4014 459.8098 C 59.9052 455.71 59.4339 449.5367 55.3444 446.0243 ZM 49 448.558 C 46.3071 448.558 44.1266 450.7462 44.125 453.4453 L 44.125 453.447 C 44.125 453.8973 43.7616 454.2617 43.3125 454.2617 C 42.8633 454.2617 42.5 453.8973 42.5 453.447 L 42.5 453.4453 C 42.5016 449.8471 45.4104 446.9283 49 446.9283 C 49.4491 446.9283 49.8125 447.2926 49.8125 447.743 C 49.8125 448.1934 49.4491 448.558 49 448.558 Z" fill="#313942"/>	</g>	<g>		<path id="camera2" d="M 70.125 1489 L 27.875 1489 C 25.1867 1489 23 1486.8069 23 1484.111 L 23 1459.6672 C 23 1457.2659 24.7139 1455.238 27.0768 1454.845 L 34.1179 1453.6672 L 36.3476 1448.0732 C 37.0949 1446.2048 38.8723 1445 40.875 1445 L 57.125 1445 C 59.1276 1445 60.905 1446.2048 61.6509 1448.0717 L 63.882 1453.6672 L 70.9264 1454.845 C 73.2861 1455.238 75 1457.2659 75 1459.6672 L 75 1484.111 C 75 1486.8069 72.8132 1489 70.125 1489 ZM 72 1459.6672 C 72 1458.8699 71.4256 1458.1902 70.6417 1458.0598 L 61.5445 1456.5813 L 58.6341 1449.0249 C 58.3866 1448.4059 57.7899 1448 57.125 1448 L 40.875 1448 C 40.21 1448 39.6133 1448.4059 39.3658 1449.0249 L 36.4554 1456.5813 L 27.3583 1458.0598 C 26.5744 1458.1902 26 1458.8699 26 1459.6672 L 26 1484.3704 C 26 1485.271 26.7268 1486 27.625 1486 L 70.375 1486 C 71.2731 1486 72 1485.271 72 1484.3704 L 72 1459.6672 ZM 49 1482.4845 C 41.8192 1482.4845 36 1476.6484 36 1469.447 C 36 1462.2454 41.8192 1456.4095 49 1456.4095 C 56.1807 1456.4095 62 1462.2454 62 1469.447 C 62 1476.6484 56.1807 1482.4845 49 1482.4845 ZM 55.3444 1462.0243 C 51.2566 1458.5103 45.101 1458.9829 41.5986 1463.0842 C 38.0947 1467.184 38.566 1473.3572 42.6555 1476.8712 C 46.7433 1480.3837 52.8974 1479.9111 56.4014 1475.8098 C 59.9052 1471.71 59.4339 1465.5367 55.3444 1462.0243 ZM 49 1464.558 C 46.3071 1464.558 44.1266 1466.7461 44.125 1469.4453 L 44.125 1469.447 C 44.125 1469.8973 43.7616 1470.2617 43.3125 1470.2617 C 42.8633 1470.2617 42.5 1469.8973 42.5 1469.447 L 42.5 1469.4453 C 42.5016 1465.847 45.4104 1462.9282 49 1462.9282 C 49.4491 1462.9282 49.8125 1463.2926 49.8125 1463.743 C 49.8125 1464.1934 49.4491 1464.558 49 1464.558 Z" fill="#ffffff"/>	</g>	<g>		<path d="M 39 245 L 29 255 L 25.4286 251.4286 L 32.0952 244.7619 L 31.8571 245 L 25.4286 238.5714 L 29 235 L 39 245 L 39 245 Z" fill="#fe335c"/>	</g></svg>