<?xml version="1.0" standalone="no"?><!-- Generator: Adobe Fireworks CS6, Export SVG Extension by Aaron Beall (http://fireworks.abeall.com) . Version: 0.6.1  --><!DOCTYPE svg PUBLIC "-//W3C//DTD SVG 1.1//EN" "http://www.w3.org/Graphics/SVG/1.1/DTD/svg11.dtd"><svg id="untitled_app2.fw-svg" viewBox="0 0 200 1200" style="background-color:#ffffff00" version="1.1"	xmlns="http://www.w3.org/2000/svg" xmlns:xlink="http://www.w3.org/1999/xlink" xml:space="preserve"	x="0px" y="0px" width="200px" height="1200px">	<defs>		<filter id="filter1" x="-100%" y="-100%" width="300%" height="300%">			<!-- Drop Shadow -->			<feOffset result="out" in="SourceGraphic" dx="0" dy="2"/>			<feColorMatrix result="out" in="out" type="matrix" values="0 0 0 0.4667 0  0 0 0 0.5216 0  0 0 0 0.5804 0  0 0 0 0.6471 0"/>			<feGaussianBlur result="out" in="out" stdDeviation="0"/>			<feBlend in="SourceGraphic" in2="out" mode="normal" result="Drop_Shadow1"/>		</filter>		<filter id="filter2" x="-100%" y="-100%" width="300%" height="300%">			<!-- Drop Shadow -->			<feOffset result="out" in="SourceGraphic" dx="0" dy="2"/>			<feColorMatrix result="out" in="out" type="matrix" values="0 0 0 0.4667 0  0 0 0 0.5216 0  0 0 0 0.5804 0  0 0 0 0.6471 0"/>			<feGaussianBlur result="out" in="out" stdDeviation="0"/>			<feBlend in="SourceGraphic" in2="out" mode="normal" result="Drop_Shadow2"/>		</filter>		<filter id="filter3" x="-100%" y="-100%" width="300%" height="300%">			<!-- Drop Shadow -->			<feOffset result="out" in="SourceGraphic" dx="0" dy="2"/>			<feColorMatrix result="out" in="out" type="matrix" values="0 0 0 0.4667 0  0 0 0 0.5216 0  0 0 0 0.5804 0  0 0 0 0.6471 0"/>			<feGaussianBlur result="out" in="out" stdDeviation="0"/>			<feBlend in="SourceGraphic" in2="out" mode="normal" result="Drop_Shadow3"/>		</filter>		<filter id="filter4" x="-100%" y="-100%" width="300%" height="300%">			<!-- Drop Shadow -->			<feOffset result="out" in="SourceGraphic" dx="0" dy="2"/>			<feColorMatrix result="out" in="out" type="matrix" values="0 0 0 0.4667 0  0 0 0 0.5216 0  0 0 0 0.5804 0  0 0 0 0.6471 0"/>			<feGaussianBlur result="out" in="out" stdDeviation="0"/>			<feBlend in="SourceGraphic" in2="out" mode="normal" result="Drop_Shadow4"/>		</filter>	</defs>	<path d="M 3.871 26 C 1.7331 26 0 27.3431 0 29 L 0 30 C 0 31.6569 1.7331 33 3.871 33 L 36.1291 33 C 38.267 33 40 31.6569 40 30 L 40 29 C 40 27.3431 38.267 26 36.1291 26 L 3.871 26 ZM 3.871 13 C 1.7331 13 0 14.3431 0 16 L 0 17 C 0 18.6569 1.7331 20 3.871 20 L 36.1291 20 C 38.267 20 40 18.6569 40 17 L 40 16 C 40 14.3431 38.267 13 36.1291 13 L 3.871 13 ZM 3.871 0 C 1.7331 0 0 1.3431 0 3 L 0 4 C 0 5.6569 1.7331 7 3.871 7 L 36.1291 7 C 38.267 7 40 5.6569 40 4 L 40 3 C 40 1.3431 38.267 0 36.1291 0 L 3.871 0 Z" fill="#ffffff"/>	<path filter="url(#filter1)" d="M 46.0816 409.3975 L 39.3097 408.2733 L 37.1643 402.932 C 36.4472 401.15 34.7381 400 32.8125 400 L 17.1875 400 C 15.2619 400 13.5528 401.15 12.8326 402.9335 L 10.6903 408.2733 L 3.9184 409.3975 C 1.6479 409.7727 0 411.7081 0 414.0005 L 0 437.3332 C 0 439.9066 2.1026 442 4.6875 442 L 45.3125 442 C 47.8974 442 50 439.9066 50 437.3332 L 50 414.0005 C 50 411.7081 48.3521 409.7727 46.0816 409.3975 ZM 46.875 437.3332 C 46.875 438.193 46.1762 438.8888 45.3125 438.8888 L 4.6875 438.8888 C 3.8238 438.8888 3.125 438.193 3.125 437.3332 L 3.125 414.0005 C 3.125 413.2394 3.6774 412.5907 4.4311 412.4662 L 12.9364 411.0549 L 15.7348 404.0896 C 15.9729 403.4986 16.5466 403.1112 17.1875 403.1112 L 32.8125 403.1112 C 33.4503 403.1112 34.0241 403.4986 34.2621 404.0896 L 37.0605 411.0549 L 45.5689 412.4662 C 46.3226 412.5907 46.875 413.2394 46.875 414.0005 L 46.875 437.3332 ZM 25 410.8908 C 18.0938 410.8908 12.5 416.4615 12.5 423.3357 C 12.5 430.2099 18.0938 435.7806 25 435.7806 C 31.9031 435.7806 37.5 430.2099 37.5 423.3357 C 37.5 416.4615 31.9031 410.8908 25 410.8908 ZM 32.1167 429.4093 C 28.7475 433.3241 22.8302 433.7753 18.8995 430.4225 C 14.9658 427.0683 14.5141 421.1755 17.8833 417.2621 C 21.2494 413.3473 27.1698 412.8961 31.1005 416.2504 C 35.0311 419.6031 35.4859 425.4959 32.1167 429.4093 ZM 25 417.1133 C 21.5485 417.1133 18.75 419.8994 18.75 423.3342 C 18.75 423.7656 19.0979 424.1135 19.5312 424.1135 C 19.9615 424.1135 20.3125 423.7656 20.3125 423.3357 C 20.3125 420.7577 22.409 418.6689 25 418.6689 C 25.4303 418.6689 25.7813 418.321 25.7813 417.8911 C 25.7813 417.4611 25.4303 417.1133 25 417.1133 Z" fill="#2c2425"/>	<path filter="url(#filter2)" d="M 48.8272 606.9747 L 41.0148 600.689 C 40.4601 600.2425 39.772 600 39.0624 600 L 10.9376 600 C 10.228 600 9.5399 600.2425 8.9852 600.689 L 1.1728 606.9747 C 0.1504 607.7973 -0.2532 609.1738 0.1603 610.423 L 3.2853 619.8516 C 3.5935 620.78 4.3145 621.512 5.2361 621.8297 C 5.5665 621.9432 5.909 622 6.2501 622 C 6.7941 622 7.3335 621.8573 7.8126 621.5795 L 7.8126 640.8571 C 7.8126 642.5928 9.2118 644 10.9376 644 L 39.0624 644 C 40.7882 644 42.1874 642.5928 42.1874 640.8571 L 42.1874 621.5795 C 42.6666 621.8573 43.2059 622 43.7499 622 C 44.0909 622 44.4335 621.9432 44.7639 621.8297 C 45.6855 621.512 46.4065 620.78 46.7147 619.8516 L 49.8397 610.423 C 50.2532 609.1738 49.8496 607.7973 48.8272 606.9747 ZM 30.8662 603.1429 C 30.0033 604.9675 27.7122 606.2857 25 606.2857 C 22.2878 606.2857 19.9967 604.9675 19.1338 603.1429 L 30.8662 603.1429 ZM 43.7499 618.8571 L 39.0624 615.7143 L 39.0624 640.8571 L 10.9376 640.8571 L 10.9376 615.7143 L 6.2501 618.8571 L 3.1251 609.4286 L 10.9376 603.1429 L 17.4637 603.1429 C 18.335 605.8483 21.3638 607.8571 25 607.8571 C 28.6362 607.8571 31.665 605.8483 32.5363 603.1429 L 39.0624 603.1429 L 46.8749 609.4286 L 43.7499 618.8571 Z" fill="#2c2425"/>	<path filter="url(#filter3)" d="M 49.0855 816.5405 L 33.4603 800.9153 C 32.6852 800.1402 31.5621 799.8289 30.4986 800.0914 C 29.937 800.2287 29.4365 800.5186 29.0398 800.9153 C 28.6858 801.2693 28.4173 801.7088 28.2646 802.2001 C 27.5551 804.4951 26.3313 806.491 24.5216 808.3007 C 22.1031 810.7177 18.9537 812.5487 15.6196 814.4836 C 12.0826 816.5344 8.428 818.6584 5.4327 821.6522 C 2.8875 824.2004 1.1541 827.0355 0.1394 830.3254 C -0.2024 831.4362 0.0951 832.6386 0.9145 833.4595 L 16.5397 849.0847 C 17.3148 849.8598 18.4379 850.1711 19.5014 849.9086 C 20.063 849.7682 20.5635 849.4814 20.9602 849.0847 C 21.3142 848.7307 21.5827 848.2912 21.7354 847.7968 C 22.4449 845.5019 23.6687 843.506 25.4799 841.6963 C 27.8969 839.2793 31.0463 837.4513 34.382 835.5164 C 37.9175 833.4626 41.572 831.3386 44.5673 828.3447 C 47.1125 825.7996 48.8459 822.9614 49.8606 819.6716 C 50.2024 818.5638 49.9049 817.3583 49.0855 816.5405 ZM 18.7507 846.8752 L 3.124 831.2501 C 7.5644 816.8731 26.8105 817.5018 31.2493 803.1248 L 46.876 818.7499 C 42.4356 833.1238 23.1895 832.4982 18.7507 846.8752 ZM 28.7148 812.0543 C 27.8984 812.8722 27.0119 813.6077 26.0948 814.3096 C 26.0292 814.3463 25.9651 814.3859 25.9102 814.4439 C 25.602 814.7521 25.602 815.2526 25.9102 815.5609 C 26.2108 815.863 26.693 815.8691 27.0043 815.5822 C 27.987 814.8345 28.9376 814.0411 29.8195 813.1591 C 30.6679 812.3107 31.4355 811.4196 32.1023 810.5071 L 33.1704 809.0422 C 33.4328 808.7279 33.4222 808.264 33.1277 807.9711 C 32.821 807.6628 32.322 807.6628 32.0138 807.9711 C 31.9573 808.0291 31.9146 808.0962 31.878 808.1633 L 30.8388 809.5854 C 30.2208 810.4338 29.5052 811.2639 28.7148 812.0543 ZM 22.9957 834.6558 C 22.0161 835.4066 21.0624 836.197 20.1805 837.082 C 19.3321 837.9304 18.5645 838.8246 17.8977 839.7371 L 16.8296 841.1958 C 16.6373 841.504 16.6709 841.913 16.9364 842.1785 C 17.2416 842.4836 17.739 842.4836 18.0457 842.1785 C 18.093 842.1296 18.1297 842.0778 18.1617 842.0228 L 19.1597 840.6556 C 19.7791 839.8103 20.4948 838.9772 21.2867 838.1868 C 22.1626 837.3109 22.9759 836.6334 23.9647 835.8826 L 24.041 835.8155 C 24.3477 835.5103 24.3477 835.0129 24.041 834.7077 C 23.7556 834.4208 23.3024 834.4086 22.9957 834.6558 ZM 30.5642 823.2819 C 30.0545 822.8546 29.5418 822.5647 29.0261 822.4213 C 28.5134 822.2778 28.0007 822.2198 27.4819 822.2565 C 26.9692 822.2961 26.4442 822.4121 25.9194 822.6135 C 25.3945 822.818 24.8665 823.0408 24.3355 823.2971 C 23.4962 822.3328 22.657 821.3806 21.8177 820.4955 C 22.1962 820.1537 22.5624 819.9798 22.9164 819.9676 C 23.2704 819.9523 23.6122 819.989 23.9357 820.0714 C 24.2653 820.1537 24.5674 820.2239 24.8451 820.2789 C 25.1259 820.3338 25.37 820.2728 25.5836 820.0927 C 25.8095 819.8974 25.9346 819.6441 25.9529 819.3389 C 25.9682 819.0307 25.8522 818.7316 25.5959 818.4387 C 25.2663 818.0602 24.8695 817.8314 24.3934 817.7459 C 23.9235 817.6635 23.4413 817.6696 22.9408 817.7795 C 22.4464 817.8924 21.9765 818.0786 21.5309 818.341 C 21.0853 818.6035 20.7283 818.872 20.4628 819.1345 L 20.1576 818.8476 C 20.0447 818.7438 19.9043 818.6889 19.7364 818.692 C 19.5655 818.692 19.4252 818.7652 19.3092 818.8995 C 19.1963 819.0307 19.1444 819.1833 19.1658 819.345 C 19.181 819.5129 19.2481 819.6411 19.3641 819.7387 L 19.6693 819.9981 C 19.2695 820.4803 18.9399 821.0144 18.6805 821.5759 C 18.4181 822.1405 18.2624 822.699 18.2044 823.2422 C 18.1434 823.7885 18.2014 824.2889 18.3692 824.7528 C 18.5371 825.2197 18.8453 825.6165 19.297 825.9918 C 20.0325 826.6022 20.8992 826.8616 21.9032 826.8036 C 22.9042 826.7426 23.9845 826.4435 25.1442 825.8209 C 26.0674 826.886 26.9921 827.9449 27.9152 828.9276 C 27.5246 829.2573 27.1828 829.4465 26.8807 829.5075 C 26.5785 829.5716 26.31 829.5655 26.0658 829.4922 C 25.8217 829.416 25.5959 829.3061 25.3883 829.1657 C 25.1808 829.0223 24.9764 828.9001 24.7719 828.7994 C 24.5704 828.6987 24.3629 828.6438 24.1493 828.6407 C 23.9357 828.6377 23.7099 828.7415 23.4596 828.9551 C 23.2032 829.1779 23.0751 829.4373 23.0751 829.7303 C 23.0751 830.0202 23.2094 830.3162 23.4718 830.6153 C 23.7373 830.9144 24.0822 831.1646 24.5003 831.363 C 24.9184 831.5613 25.3883 831.6865 25.9072 831.72 C 26.4259 831.7567 26.9722 831.6773 27.549 831.4637 C 28.1288 831.2531 28.7026 830.8716 29.2672 830.304 C 29.5403 830.5695 29.815 830.8228 30.0881 831.067 C 30.2041 831.1677 30.3444 831.2165 30.5154 831.2043 C 30.6801 831.1982 30.8236 831.1219 30.9365 830.9846 C 31.0524 830.8442 31.1013 830.6885 31.083 830.5268 C 31.0677 830.362 31.0006 830.2369 30.8877 830.1453 C 30.613 829.9256 30.3383 829.6937 30.0637 829.4495 C 30.5306 828.8757 30.906 828.2715 31.1837 827.6733 C 31.4614 827.0721 31.6262 826.4923 31.6811 825.9552 C 31.7361 825.415 31.672 824.9268 31.495 824.4843 C 31.321 824.0356 31.0098 823.6511 30.5642 823.2819 ZM 21.83 824.3408 C 21.3874 824.3591 21.0014 824.2126 20.6642 823.8861 C 20.5207 823.7488 20.42 823.5809 20.359 823.3826 C 20.2949 823.1842 20.2735 822.9675 20.298 822.7295 C 20.3193 822.4945 20.3895 822.2504 20.5116 822.0032 C 20.6276 821.756 20.7985 821.5088 21.0182 821.2708 C 21.8101 822.0581 22.6005 822.9218 23.3925 823.8159 C 22.7943 824.1455 22.2725 824.3225 21.83 824.3408 ZM 29.2 827.4689 C 29.0596 827.7283 28.8979 827.9602 28.7087 828.1616 C 27.8343 827.2766 26.9585 826.3062 26.0842 825.3082 L 26.7952 824.9969 C 27.0485 824.8901 27.3018 824.8199 27.5551 824.7772 C 27.8145 824.7375 28.0709 824.7498 28.3272 824.8108 C 28.5805 824.8749 28.8216 825.0122 29.0444 825.2289 C 29.2641 825.4486 29.4045 825.6775 29.4594 825.9247 C 29.5205 826.1749 29.5235 826.4282 29.4808 826.6876 C 29.435 826.947 29.3435 827.2064 29.2 827.4689 Z" fill="#2c2425"/>	<path filter="url(#filter4)" d="M 44.6997 1046.1022 C 44.6997 1043.3376 42.6891 1040.3887 38.8511 1040.3887 C 35.5611 1040.3887 33.1851 1042.7847 33.1851 1046.1022 C 33.1851 1048.8667 35.0128 1052 38.8511 1052 C 41.5926 1052 44.6997 1049.9727 44.6997 1046.1022 ZM 41.7754 1046.1022 C 41.7754 1047.9453 39.7648 1049.051 38.8511 1049.051 C 37.0233 1049.051 36.1094 1047.0237 36.1094 1046.1022 C 36.1094 1044.4434 37.5716 1043.3376 38.8511 1043.3376 C 40.6788 1043.3376 41.7754 1045.1807 41.7754 1046.1022 ZM 19.843 1046.1022 C 19.843 1043.3376 17.8324 1040.3887 13.9943 1040.3887 C 10.7044 1040.3887 8.3284 1042.7847 8.3284 1046.1022 C 8.3284 1048.8667 10.1561 1052 13.9943 1052 C 16.7358 1052 19.843 1049.9727 19.843 1046.1022 ZM 16.9186 1046.1022 C 16.9186 1047.9453 14.9081 1049.051 13.9943 1049.051 C 12.1666 1049.051 11.2527 1047.0237 11.2527 1046.1022 C 11.2527 1044.4434 12.7149 1043.3376 13.9943 1043.3376 C 15.822 1043.3376 16.9186 1045.1807 16.9186 1046.1022 ZM 44.0781 1012 L 10 1012 L 10 1007.6 L 10 1004 L 5.9524 1004 L 0 1004 L 0 1008 L 6 1008 L 6 1013.7444 L 6 1019.6 L 6 1030.259 C 6 1033.3923 10.5692 1038 14.0419 1038 L 36.475 1038 C 38.8511 1038 43.6031 1035.4197 45.248 1032.8394 C 46.8929 1030.259 47.624 1026.7988 48.5378 1024.4028 C 49.2689 1022.1911 50 1020.2938 50 1018.4507 C 50 1015.1332 48.6473 1012.7372 44.0781 1012 ZM 44.2608 1016 C 46.0885 1016 47.0757 1017.8431 47.0757 1019.3176 C 47.0757 1019.6862 46.3446 1020.901 45.9791 1022.3754 C 45.0652 1024.9557 44.3341 1027.9963 43.0548 1030.7609 C 42.5064 1031.8668 38.4855 1035 36.8405 1035 L 13.5692 1035 C 11.1932 1035 10 1031.4982 10 1030.0237 L 10 1020 L 10 1020 L 10 1016 L 44.2608 1016 Z" fill="#313942"/>	<path d="M 19 215.5 L 5.5 229 L 1 224.5 L 10 215.5 L 10 215.5 L 1 206.5 L 5.5 202 L 19 215.5 L 19 215.5 Z" fill="#fc335c"/></svg>